<svg width="652" height="606" viewBox="0 0 652 606" fill="none" xmlns="http://www.w3.org/2000/svg">
  <!-- Wallet body (outline as filled shape) -->
  <path d="M156 160C123.072 160 96 187.072 96 220V440C96 472.928 123.072 500 156 500H496C528.928 500 556 472.928 556 440V220C556 187.072 528.928 160 496 160H156ZM136 220C136 209.507 144.507 201 155 201H497C507.493 201 516 209.507 516 220V440C516 450.493 507.493 459 497 459H155C144.507 459 136 450.493 136 440V220Z" fill="white" fill-opacity="0.3"/>
  <!-- Wallet flap line -->
  <rect x="96" y="240" width="460" height="20" rx="4" fill="white" fill-opacity="0.3"/>
  <!-- Coin circle (outline) -->
  <path d="M480 290C452.386 290 430 312.386 430 340C430 367.614 452.386 390 480 390C507.614 390 530 367.614 530 340C530 312.386 507.614 290 480 290ZM460 340C460 328.954 468.954 320 480 320C491.046 320 500 328.954 500 340C500 351.046 491.046 360 480 360C468.954 360 460 351.046 460 340Z" fill="white" fill-opacity="0.3"/>
  <!-- Dollar sign vertical bar -->
  <rect x="312" y="66" width="28" height="474" rx="14" fill="white"/>
  <!-- Dollar S curve -->
  <path d="M242 218C248 186 272 156 326 156C380 156 412 186 412 222C412 270 366 290 326 290C286 290 234 314 234 366C234 406 264 440 326 440C380 440 406 414 412 390" stroke="white" stroke-width="28" stroke-linecap="round" stroke-linejoin="round"/>
</svg>
